HIERARCHY
ROOT Hips
{
	OFFSET 0.00000 0.00000 0.00000
	CHANNELS 6 Xposition Yposition Zposition Yrotation Zrotation Xrotation 
	JOINT Lumbar
	{
		OFFSET 0 0 0
		CHANNELS 3 Zrotation Xrotation Yrotation
		JOINT Neck
		{
			OFFSET 0.00 0.2701 0.00
			CHANNELS 3 Zrotation Xrotation Yrotation
			End Site
			{
				OFFSET 0.00 0.1379 0.00
			}
		}
		JOINT RightShoulder
		{
			OFFSET 0.0119 0.2289 0.1181
			CHANNELS 3 Zrotation Xrotation Yrotation
			JOINT RightElbow
			{
				OFFSET 0.00 -0.1475 0.00
				CHANNELS 2 Zrotation Yrotation
				JOINT RightWrist
				{
					OFFSET 0.00 -0.1605 0.00
					CHANNELS 2 Zrotation Xrotation
					End Site
					{
						OFFSET 0.0040 -0.1068 0.0006
					}
				}
			}
		}
		JOINT LeftShoulder
		{
			OFFSET 0.0119 0.2289 -0.1181
			CHANNELS 3 Zrotation Xrotation Yrotation
			JOINT LeftElbow
			{
				OFFSET 0.00 -0.1475 0.00
				CHANNELS 2 Zrotation Yrotation
				JOINT LeftWrist
				{
					OFFSET 0.00 -0.1605 0.00
					CHANNELS 2 Zrotation Xrotation
					End Site
					{
						OFFSET 0.0040 -0.1068 -0.0006
					}
				}
			}
		}
	}
	JOINT RightHip
	{
		OFFSET 0.0316 -0.0424 0.0458
		CHANNELS 3 Zrotation Xrotation Yrotation
		JOINT RightKnee
		{
			OFFSET 0.00 -0.2438 0.00
			CHANNELS 1 Zrotation
			JOINT RightAnkle
			{
				OFFSET 0.00 -0.2449 0.00
				CHANNELS 3 Zrotation Xrotation Yrotation
				End Site
				{
					OFFSET 0.1237 -0.0542 0.0051
				}
			}
		}
	}
	JOINT LeftHip
	{
		OFFSET 0.0316 -0.0424 -0.0458
		CHANNELS 3 Zrotation Xrotation Yrotation
		JOINT LeftKnee
		{
			OFFSET 0.00 -0.2438 0.00
			CHANNELS 1 Zrotation
			JOINT LeftAnkle
			{
				OFFSET 0.00 -0.2449 0.00
				CHANNELS 3 Zrotation Xrotation Yrotation
				End Site
				{
					OFFSET 0.1237 -0.0542 -0.0051
				}
			}
		}
	}
}
MOTION
Frames: 22
Frame Time: 0.02
-0.16292 -0.00776 -0.10423 -141.48537 -22.8881 2.78232 33.95189 0.61823 -2.36845 -11.69678 -2.0807 -0.83078 5.29577 -28.56759 25.30047 126.759 112.89576 17.99049 2.1805 12.62123 41.53409 -8.00288 122.83102 -100.25752 26.10459 1.17393 26.06125 1.65794 -9.66166 -19.6439 -7.52769 -5.35472 -3.5302 36.69552 12.28547 -5.19578 -32.62198 -9.1537 2.23854 1.86898
-0.16437 -0.00859 -0.10607 -141.3312 -22.76143 2.49316 33.99788 0.61126 -2.68045 -11.87393 -1.42862 -0.83078 5.85069 -28.76787 25.14759 126.50742 111.07818 18.51742 1.74334 11.24963 40.84812 -7.37198 122.64619 -97.68129 27.10249 1.51644 25.89759 2.12982 -10.1849 -19.65982 -7.45895 -5.3333 -3.51675 36.50119 12.50638 -4.71286 -32.48728 -9.10319 2.44657 1.98879
-0.16579 -0.00953 -0.10762 -141.26297 -22.7219 2.14718 34.13443 0.62156 -3.08071 -12.05403 -0.65768 -0.83078 6.46129 -28.77543 24.93367 126.1055 108.02934 19.38768 1.10696 9.45931 40.28621 -6.44064 122.4097 -92.9052 28.56161 2.14151 25.8259 2.62183 -10.73317 -19.70738 -7.36826 -5.30221 -3.49834 36.23375 12.70575 -4.35788 -32.20756 -9.01388 2.70488 2.13754
-0.16719 -0.0104 -0.10929 -141.1625 -22.64015 1.83645 34.22364 0.62546 -3.42407 -12.23205 0.0449 -0.83078 7.02227 -28.85672 24.74392 125.78356 105.71328 20.0655 0.59303 7.88704 39.67449 -5.65532 122.20816 -89.41523 29.75428 2.60265 25.70996 3.09323 -11.26234 -19.73704 -7.28931 -5.27552 -3.48208 36.00614 12.91252 -3.94281 -32.00649 -8.94591 2.934 2.26943
-0.16874 -0.01138 -0.11103 -141.03788 -22.56649 1.47942 34.33927 0.6237 -3.84054 -12.41498 0.823 -0.83078 7.69396 -29.00485 24.56948 125.41192 102.70319 20.88636 -0.05287 6.18234 39.02701 -4.82613 121.96005 -84.80761 31.17572 3.20257 25.60032 3.61786 -11.8298 -19.78172 -7.20219 -5.24823 -3.46586 35.74267 13.13489 -3.52908 -31.74653 -8.86099 3.19178 2.41795
-0.16997 -0.01215 -0.11255 -140.98139 -22.49846 1.20814 34.42107 0.63711 -4.12497 -12.58696 1.46641 -0.83078 8.144 -28.96597 24.34903 125.10849 100.81872 21.49592 -0.47462 4.66226 38.48675 -4.0194 121.7955 -81.94479 32.23333 3.58775 25.50179 4.03381 -12.32091 -19.80261 -7.12724 -5.22016 -3.44858 35.54123 13.3173 -3.14647 -31.57748 -8.80249 3.4003 2.53788
-0.17038 -0.01236 -0.11356 -141.10234 -22.41664 1.18351 34.38997 0.69543 -4.02208 -12.73705 1.70711 -0.83078 7.98357 -28.44306 24.01104 125.02738 102.50926 21.42578 -0.19916 3.72545 38.21084 -3.33655 121.88036 -84.76192 32.19011 3.27373 25.40121 4.15385 -12.59929 -19.74981 -7.09035 -5.19186 -3.42901 35.50809 13.39749 -2.80821 -31.68409 -8.82835 3.47023 2.5772
-0.17047 -0.01236 -0.11437 -141.28658 -22.33934 1.24851 34.32141 0.76741 -3.78355 -12.87426 1.80644 -0.83078 7.59496 -27.74013 23.63006 125.02048 105.3423 21.13492 0.30344 2.99618 38.04042 -2.68945 122.04997 -89.34668 31.76523 2.74132 25.31104 4.16171 -12.79837 -19.6722 -7.06671 -5.16326 -3.4087 35.54416 13.43689 -2.49989 -31.88866 -8.88183 3.48696 2.58569
-0.17069 -0.01244 -0.11526 -141.43436 -22.26549 1.27633 34.26796 0.82796 -3.60697 -13.01115 1.96924 -0.83078 7.29916 -27.12768 23.27184 124.98167 107.53897 20.95428 0.6824 2.19254 37.82313 -2.03372 122.1764 -92.89462 31.50373 2.33501 25.22319 4.21413 -13.03028 -19.60585 -7.03774 -5.13514 -3.38918 35.56376 13.49237 -2.18515 -32.05757 -8.92181 3.52143 2.60463
-0.17097 -0.01256 -0.11619 -141.61711 -22.1712 1.28813 34.22485 0.90978 -3.43051 -13.17386 2.13916 -0.83078 7.04901 -26.47136 22.89669 124.93062 110.18256 20.74301 1.13975 1.28944 37.60354 -1.33438 122.31997 -97.33209 31.29347 1.82729 25.10855 4.29369 -13.27688 -19.53987 -7.00518 -5.10521 -3.36758 35.51956 13.55767 -1.84338 -32.18872 -8.96505 3.58456 2.63951
-0.17106 -0.01255 -0.11698 -141.74168 -22.11968 1.35399 34.15124 0.95205 -3.22259 -13.28015 2.25979 -0.83078 6.65185 -25.86706 22.5489 124.92383 112.189 20.53943 1.49143 0.64881 37.41468 -0.73943 122.44961 -100.39095 30.88882 1.47245 25.05124 4.29074 -13.47348 -19.46781 -6.98341 -5.07913 -3.35019 35.62301 13.59294 -1.56468 -32.41767 -9.0078 3.57506 2.63365
-0.17072 -0.01218 -0.11744 -141.68315 -22.18274 1.55947 33.9927 0.86649 -2.94185 -13.22974 2.27143 -0.83078 5.87822 -25.4428 22.27447 125.02849 112.10606 20.40357 1.4876 0.6811 37.26433 -0.4163 122.51133 -98.99253 29.9609 1.61673 25.14683 4.07909 -13.55251 -19.37616 -6.98947 -5.06359 -3.34484 36.13998 13.556 -1.44123 -32.94464 -9.04933 3.37505 2.5212
-0.1702 -0.01168 -0.11774 -141.56489 -22.28862 1.81435 33.80626 0.74319 -2.63725 -13.12365 2.23899 -0.83078 4.96937 -25.0794 22.03181 125.17423 111.35803 20.28297 1.3721 0.97304 37.14499 -0.20028 122.55757 -96.19527 28.8622 1.91681 25.2996 3.78967 -13.58329 -19.28057 -7.00585 -5.05204 -3.34376 36.79883 13.48986 -1.38169 -33.55736 -9.08839 3.10432 2.36907
-0.16976 -0.01125 -0.11809 -141.47787 -22.37612 2.03882 33.63844 0.64743 -2.35567 -13.04582 2.23109 -0.83078 4.13905 -24.69419 21.78316 125.2974 110.95377 20.15833 1.31415 1.14859 37.02373 0.05863 122.61743 -94.19488 27.89299 2.12844 25.42789 3.54127 -13.63569 -19.19268 -7.01671 -5.03878 -3.34057 37.37875 13.43709 -1.29998 -34.09795 -9.1242 2.86739 2.23584
-0.16931 -0.01074 -0.11856 -141.37516 -22.45957 2.29974 33.44381 0.50931 -2.01799 -12.95546 2.19968 -0.83078 3.22765 -24.27817 21.49698 125.44063 110.41333 20.01312 1.23541 1.32306 36.85288 0.34231 122.65419 -91.58268 26.69568 2.40626 25.55119 3.2652 -13.68792 -19.07974 -7.03134 -5.02494 -3.33796 38.02389 13.38379 -1.19072 -34.78324 -9.17918 2.6207 2.0974
-0.16884 -0.01038 -0.11874 -141.29094 -22.56122 2.4956 33.29949 0.44903 -1.79327 -12.87768 2.20813 -0.83078 2.45732 -23.9428 21.29749 125.54954 109.98386 19.91829 1.17036 1.56036 36.79374 0.54768 122.73206 -89.87943 25.93289 2.58712 25.69712 3.02952 -13.72847 -19.01745 -7.04063 -5.0134 -3.33526 38.56369 13.32354 -1.15317 -35.1845 -9.19356 2.37938 1.96141
-0.16832 -0.01046 -0.11825 -141.26511 -22.70536 2.497 33.29586 0.62318 -1.88642 -12.85201 2.342 -0.83078 2.09954 -23.8198 21.3268 125.56525 110.02037 19.95052 1.17124 1.89429 37.01232 0.57752 122.94618 -91.11237 26.45545 2.45322 25.90161 2.92646 -13.76287 -19.10394 -7.03048 -5.00627 -3.33048 38.79754 13.26588 -1.30168 -34.79627 -9.09415 2.16055 1.83657
-0.16778 -0.01069 -0.11749 -141.2611 -22.86581 2.43134 33.34502 0.87483 -2.09438 -12.84022 2.5173 -0.83078 1.89169 -23.77625 21.4432 125.54265 110.18687 20.03577 1.18855 2.28406 37.34473 0.5299 123.19827 -93.28367 27.41493 2.21913 26.12493 2.86673 -13.78518 -19.24021 -7.01489 -5.00148 -3.32557 38.91659 13.19991 -1.51943 -34.11666 -8.95428 1.95162 1.7167
-0.16727 -0.01083 -0.11681 -141.25139 -23.01698 2.39766 33.37342 1.08442 -2.25086 -12.81974 2.67142 -0.83078 1.62262 -23.69392 21.52155 125.5294 110.28982 20.10295 1.1966 2.65594 37.64134 0.50813 123.42017 -94.96199 28.14755 2.03779 26.333 2.78656 -13.80366 -19.3486 -7.00319 -4.99632 -3.32126 39.07484 13.12812 -1.70273 -33.55857 -8.83422 1.74474 1.59819
-0.16668 -0.01106 -0.11627 -141.22137 -23.17752 2.3592 33.38688 1.32226 -2.40497 -12.80761 2.83408 -0.83078 1.31836 -23.62368 21.59371 125.55097 110.3876 20.14412 1.20821 3.00513 37.87722 0.52125 123.69621 -96.87487 28.9933 1.83113 26.57143 2.70745 -13.85858 -19.47894 -6.98606 -4.98855 -3.31492 39.2924 13.095 -1.90029 -33.04608 -8.70791 1.50771 1.46297
-0.16624 -0.01115 -0.11539 -141.24022 -23.32189 2.31437 33.44476 1.51931 -2.58975 -12.78183 2.98909 -0.83078 1.12619 -23.54784 21.70006 125.49121 110.53751 20.2531 1.21808 3.41175 38.25949 0.44576 123.86867 -98.53835 29.70962 1.65159 26.75021 2.63658 -13.83683 -19.57557 -6.97859 -4.98652 -3.31258 39.35787 12.98073 -2.08448 -32.37262 -8.58529 1.33676 1.36428
-0.1662 -0.01084 -0.1137 -141.38342 -23.41653 2.26558 33.60882 1.59204 -2.84781 -12.71787 3.11563 -0.83078 1.1968 -23.42476 21.87244 125.20764 110.77963 20.52361 1.21566 3.95891 39.07332 0.13254 123.74559 -99.30361 29.96014 1.56918 26.76023 2.58581 -13.59461 -19.56592 -7.00089 -5.00138 -3.32243 39.02519 12.63616 -2.2081 -31.28794 -8.48063 1.34629 1.36528
